# xmcd
#
# Track frame offsets: 
#        150
#        32342
#        62922
#        94074
#        116131
#        146331
#        178733
#        211939
#        251866
#        292867
#
# Disc length: 4323 seconds
#
# Revision: 1
# Processed by: cddbd v1.5.2PL0 Copyright (c) Steve Scherf et al.
# Submitted via: ExactAudioCopy v1.1
#
DISCID=8f10e10a
DTITLE=John Coltrane - Interplay [CD3]
DYEAR=2007
DGENRE=Jazz
TTITLE0=The Prestige All Stars with John Coltrane - Dakar (mono)
TTITLE1=The Prestige All Stars with John Coltrane - Mary's Blues (mono
TTITLE1=)
TTITLE2=The Prestige All Stars with John Coltrane - Route 4 (mono)
TTITLE3=The Prestige All Stars with John Coltrane - Velvet Scene (mono
TTITLE3=)
TTITLE4=The Prestige All Stars with John Coltrane - Witches' Pit (mono
TTITLE4=)
TTITLE5=The Prestige All Stars with John Coltrane - Cat Walk (mono)
TTITLE6=The John Coltrane - Paul Quinichette Quintet - Cattin' (mono)
TTITLE7=The John Coltrane - Paul Quinichette Quintet - Anatomy (mono)
TTITLE8=The John Coltrane - Paul Quinichette Quintet - Vodka (mono)
TTITLE9=The John Coltrane - Paul Quinichette Quintet - Sunday (mono)
EXTD=YEAR: 2007
EXTT0=
EXTT1=
EXTT2=
EXTT3=
EXTT4=
EXTT5=
EXTT6=
EXTT7=
EXTT8=
EXTT9=
PLAYORDER=
